<svg width="44" height="48" viewBox="0 0 44 48" fill="none" xmlns="http://www.w3.org/2000/svg">
<ellipse cx="22.1018" cy="24" rx="21.6287" ry="23.1538" fill="#E1E5F8"/>
<path d="M29.3114 30.4615V28.6667C29.3114 27.7146 28.9581 26.8016 28.3292 26.1283C27.7003 25.4551 26.8474 25.0769 25.9581 25.0769H19.2515C18.3621 25.0769 17.5092 25.4551 16.8804 26.1283C16.2515 26.8016 15.8982 27.7146 15.8982 28.6667V30.4615" stroke="#453DE0" stroke-width="2" stroke-linecap="round" stroke-linejoin="round"/>
<path d="M22.6048 21.4872C24.4568 21.4872 25.9581 19.88 25.9581 17.8975C25.9581 15.9149 24.4568 14.3077 22.6048 14.3077C20.7528 14.3077 19.2515 15.9149 19.2515 17.8975C19.2515 19.88 20.7528 21.4872 22.6048 21.4872Z" stroke="#453DE0" stroke-width="2" stroke-linecap="round" stroke-linejoin="round"/>
</svg>
